<?xml version="1.0" encoding="UTF-8"?>
<svg id="Layer_2" data-name="Layer 2" xmlns="http://www.w3.org/2000/svg" xmlns:xlink="http://www.w3.org/1999/xlink" viewBox="0 0 583.85 272.85">
  <defs>
    <style>
      .cls-1 {
        clip-path: url(#clippath);
      }

      .cls-2, .cls-3 {
        fill: none;
      }

      .cls-3 {
        stroke: #3150a4;
        stroke-linecap: round;
        stroke-linejoin: round;
        stroke-width: .50px;
      }
    </style>
    <clipPath id="clippath">
      <rect class="cls-2" width="583.85" height="272.85"/>
    </clipPath>
  </defs>
  <g id="Layer_1-2" data-name="Layer 1">
    <g class="cls-1">
      <g>
        <path class="cls-3" d="m293.74,285.49c-15.11-47.02,36.38-36.38,36.38-36.38,0,0,10.64,51.49-36.38,36.38"/>
        <line class="cls-3" x1="320.47" y1="258.76" x2="285.81" y2="293.42"/>
        <path class="cls-3" d="m309.92,269.31s-5.73-4.72-2.25-13.28"/>
        <path class="cls-3" d="m309.92,269.31s4.72,5.73,13.29,2.25"/>
        <path class="cls-3" d="m302.03,277.2s-7.4-6.1-2.9-17.17"/>
      </g>
      <g>
        <g>
          <path class="cls-3" d="m35.61,122.43c-15.85-30.86-36.14,0-36.14,0,0,0,20.29,30.86,36.14,0"/>
          <line class="cls-3" x1="9.05" y1="122.43" x2="43.48" y2="122.43"/>
        </g>
        <g>
          <path class="cls-3" d="m-2.45,59.35h20.99c1.61,0,2.91,1.3,2.91,2.91v11.54c0,1.61-1.3,2.91-2.91,2.91H-2.46c-1.61,0-2.91-1.3-2.91-2.91v-11.54c0-1.61,1.31-2.91,2.91-2.91Z" transform="translate(-45.75 25.61) rotate(-45)"/>
          <rect class="cls-3" x="13.67" y="56.61" width="34.22" height="68.32" rx="4.22" ry="4.22" transform="translate(-55.17 48.35) rotate(-45)"/>
          <path class="cls-3" d="m39.79,75.58l24.26,24.26c1.65,1.65,1.65,4.32,0,5.97l-18.23,18.23c-1.65,1.65-4.32,1.65-5.96,0l-24.26-24.26,24.2-24.2Z"/>
          <line class="cls-3" x1="41.78" y1="84.74" x2="58.65" y2="101.61"/>
        </g>
      </g>
      <g>
        <path class="cls-3" d="m576.4-11.62c-1.27-10.95-11.18-18.79-22.13-17.52s-18.79,11.18-17.52,22.13c.54,4.66,2.65,8.76,5.74,11.83-.02.01-.03.02-.03.02,0,0,9.67,9.32,11.19,19.87l13.67-1.59c-.94-10.62,6.33-21.91,6.33-21.91-.03-.02-.06-.04-.08-.05,2.28-3.69,3.37-8.14,2.84-12.78Z"/>
        <path class="cls-3" d="m569.01,24.9c.13,1.16-.7,2.21-1.85,2.34l-12.47,1.45c-1.16.13-2.21-.7-2.34-1.86h0c-.13-1.16.7-2.21,1.86-2.34l12.47-1.45c1.16-.13,2.21.7,2.34,1.86h0Z"/>
        <path class="cls-3" d="m569.49,29.1c.13,1.16-.7,2.21-1.85,2.34l-12.47,1.45c-1.16.13-2.21-.7-2.34-1.85h0c-.13-1.16.7-2.21,1.86-2.34l12.47-1.45c1.16-.13,2.21.69,2.34,1.86h0Z"/>
        <path class="cls-3" d="m567.86,32.94c.1.88-.52,1.67-1.4,1.77l-9.4,1.09c-.87.1-1.66-.52-1.77-1.4h0c-.1-.87.52-1.66,1.4-1.77l9.4-1.09c.87-.1,1.66.52,1.77,1.4h0Z"/>
        <g>
          <path class="cls-3" d="m559.28,13.97c-25.1-9.41-3.23-27.75-3.23-27.75,0,0,25.5,12.82,3.23,27.75"/>
          <line class="cls-3" x1="556.91" y1="-6.42" x2="560.42" y2="23.77"/>
          <path class="cls-3" d="m557.85,1.63s-3.94.85-6.41-3.52"/>
          <path class="cls-3" d="m557.85,1.63s4.03-.08,5.43-4.9"/>
          <path class="cls-3" d="m558.55,7.65s-5.09,1.1-8.29-4.55"/>
          <path class="cls-3" d="m558.55,7.65s5.21-.1,7.02-6.33"/>
        </g>
      </g>
      <g>
        <path class="cls-3" d="m328.41,187.94c-9.02-9.02-23.64-9.02-32.65,0s-9.02,23.64,0,32.65c3.84,3.84,8.69,6.04,13.7,6.61,0,.02-.01.04-.01.04,0,0,15.46,1.51,24.42,9.99l11.26-11.26c-8.48-8.96-9.98-24.42-9.98-24.42-.04,0-.08,0-.11.01-.58-4.98-2.78-9.81-6.6-13.62Z"/>
        <path class="cls-3" d="m347.93,226.38c.95.95.96,2.5,0,3.46l-10.27,10.27c-.96.96-2.5.95-3.46,0h0c-.95-.95-.96-2.5,0-3.46l10.27-10.27c.95-.95,2.5-.95,3.46,0h0Z"/>
        <path class="cls-3" d="m351.39,229.84c.95.95.95,2.5,0,3.46l-10.27,10.27c-.96.96-2.5.96-3.46,0h0c-.96-.96-.95-2.5,0-3.46l10.27-10.27c.95-.95,2.5-.95,3.46,0h0Z"/>
        <path class="cls-3" d="m352.66,234.49c.72.72.72,1.89,0,2.61l-7.74,7.74c-.72.72-1.89.72-2.61,0h0c-.72-.72-.72-1.89,0-2.61l7.74-7.74c.72-.72,1.89-.72,2.61,0h0Z"/>
        <g>
          <path class="cls-3" d="m331.26,223.44c-29.53,9.49-22.85-22.85-22.85-22.85,0,0,32.34-6.68,22.85,22.85"/>
          <line class="cls-3" x1="314.47" y1="206.65" x2="339.34" y2="231.52"/>
          <path class="cls-3" d="m321.1,213.28s-2.96,3.6-8.34,1.41"/>
          <path class="cls-3" d="m321.1,213.28s3.6-2.96,1.41-8.34"/>
          <path class="cls-3" d="m326.06,218.24s-3.83,4.65-10.78,1.82"/>
          <path class="cls-3" d="m326.06,218.24s4.65-3.83,1.82-10.78"/>
        </g>
      </g>
      <g>
        <path class="cls-3" d="m125.15,119.04c-19.79,0-35.88,15.87-36.22,35.58h-3.28l5.95,11.89,5.95-11.89h-3.99c.34-17.54,14.67-31.65,32.29-31.65"/>
        <path class="cls-3" d="m121.16,193.27c19.79,0,35.87-15.87,36.22-35.59h3.28l-5.95-11.88-5.95,11.88h3.99c-.34,17.54-14.66,31.65-32.28,31.65"/>
        <path class="cls-3" d="m127.62,177.32c31.78-6.88-4.99-45.76-4.99-45.76,0,0-36.97,39.84-4.99,45.76,2.45.45,7.54.53,9.98,0Z"/>
        <path class="cls-3" d="m134.04,157.65s4.84,8.54-1.96,12.14"/>
      </g>
      <polygon class="cls-3" points="513.2 24.22 506.36 53.08 517.44 55.6 510.37 86.67 532.82 47.76 521.21 46.07 527.29 27.02 519.59 25.44 513.2 24.22"/>
      <polygon class="cls-3" points="324.5 49.43 321.5 78.28 332.56 79.33 329.61 110.35 346.5 69.79 335.02 69.62 338.52 50.38 330.86 49.82 324.5 49.43"/>
      <g>
        <polyline class="cls-3" points="442.14 108.93 436.26 103.05 442.17 97.13"/>
        <path class="cls-3" d="m480.97,78.23l-37.92,1.16-1.16,37.92,3.98-3.98,20.76,20.76c1.74,1.74,4.57,1.74,6.31,0l24.81-24.81c1.74-1.74,1.74-4.57,0-6.31l-20.76-20.76,3.98-3.98Z"/>
        <g>
          <path class="cls-3" d="m474.32,121.46c-28.57-6.97-7.15-29.79-7.15-29.79,0,0,29.45,10.62,7.15,29.79"/>
          <path class="cls-3" d="m469.07,99.57l5.25,21.89s1.7,8.04-7.78,11.86"/>
          <path class="cls-3" d="m471.14,108.21s-4.18,1.44-7.44-2.99"/>
          <path class="cls-3" d="m471.14,108.21s4.38-.61,5.28-6.04"/>
          <path class="cls-3" d="m472.69,114.68s-5.4,1.86-9.62-3.87"/>
          <path class="cls-3" d="m472.69,114.68s5.65-.79,6.82-7.81"/>
        </g>
      </g>
      <g>
        <path class="cls-3" d="m181.37,76.19l22.31,22.31h0c3.27,2.97,8.33,2.88,11.49-.28l29.81-29.81c3.16-3.16,3.25-8.22.27-11.48h0s-22.31-22.32-22.31-22.32l-41.58,41.58Z"/>
        <rect class="cls-3" x="179.26" y="60.71" width="15.03" height="8.33" transform="translate(8.83 151.08) rotate(-45)"/>
        <rect class="cls-3" x="204.76" y="35.22" width="15.03" height="8.33" transform="translate(34.33 161.64) rotate(-45)"/>
        <line class="cls-3" x1="199.87" y1="76.05" x2="207.92" y2="84.1"/>
        <line class="cls-3" x1="207.92" y1="76.05" x2="199.87" y2="84.1"/>
        <line class="cls-3" x1="229.76" y1="54.21" x2="221.71" y2="62.26"/>
      </g>
      <g>
        <path class="cls-3" d="m4.9,281.43c-.26-11.57-9.72-20.88-21.36-20.88s-21.09,9.3-21.36,20.88H4.9Z"/>
        <line class="cls-3" x1="10.92" y1="249.65" x2="-1.12" y2="261.69"/>
        <line class="cls-3" x1="10.52" y1="264.2" x2="3.17" y2="266.3"/>
        <path class="cls-3" d="m-20.81,292.08c.19-8.55,5.53-15.82,13.04-18.84,1.54-.62,3.17-1.06,4.87-1.29.95-.13,1.91-.2,2.89-.2,11.34,0,20.55,9.06,20.81,20.34H-20.81Z"/>
      </g>
      <g>
        <path class="cls-3" d="m510.15,292.27c10.87-7.99,13.2-23.29,5.2-34.16-8-10.87-23.29-13.2-34.16-5.2-4.63,3.4-7.7,8.13-9.1,13.27-.02-.01-.04-.02-.04-.02,0,0-4.04,15.93-14.34,23.95l9.98,13.57c10.72-7.44,27.13-6.55,27.13-6.55,0-.04,0-.08,0-.12,5.3.18,10.7-1.35,15.3-4.74Z"/>
        <g>
          <path class="cls-3" d="m508.05,263.32c-5.35-7.28-15.54-8.89-22.87-3.69l-.89-1.2-2.76,5.4,5.97-1.03-1.08-1.46"/>
          <path class="cls-3" d="m477.86,267.62c-3.49,8.33.36,17.9,8.6,21.52l-.58,1.38,6.05-.41-3.96-4.6-.7,1.68"/>
          <path class="cls-3" d="m495.91,291.27c9.03-.24,16.17-7.67,16.09-16.67l1.5-.04-2.86-5.35-2.57,5.49,1.82-.05"/>
        </g>
      </g>
      <g>
        <path class="cls-3" d="m260.65,64.64h23.12c4.03,0,7.3,3.27,7.3,7.3v14.22c0,4.03-3.27,7.3-7.3,7.3h-23.13c-4.03,0-7.3-3.27-7.3-7.3v-14.22c0-4.03,3.27-7.3,7.3-7.3Z" transform="translate(31.47 228.69) rotate(-48.06)"/>
        <g>
          <path class="cls-3" d="m264.87,72.45c3.64-4.06,9.89-4.39,13.94-.75s4.39,9.89.74,13.94-9.89,4.39-13.94.74-4.39-9.89-.74-13.94Z"/>
          <path class="cls-3" d="m276.11,79.05c.06-.06.13-.12.19-.19,1.07-1.2.98-3.04-.22-4.11s-3.04-.98-4.11.22c-.06.07-.11.14-.17.2l4.31,3.87Z"/>
          <line class="cls-3" x1="271.04" y1="85.06" x2="274.05" y2="81.7"/>
          <line class="cls-3" x1="266.59" y1="81.06" x2="269.61" y2="77.71"/>
        </g>
        <g>
          <path class="cls-3" d="m289.24,68.99l7.39,6.64c2.99,2.68,7.58,2.44,10.27-.55h0c2.68-2.99,2.44-7.58-.55-10.27l-7.39-6.64"/>
          <path class="cls-3" d="m295.62,45l5.32,4.78c2.97,2.67,3.12,7.36.32,10.47s-7.48,3.47-10.45.8l-5.32-4.78,10.13-11.27Z"/>
          <path class="cls-3" d="m295.73,49.06l3.25,2.92c1.82,1.63,1.91,4.5.2,6.4s-4.57,2.12-6.39.49l-3.25-2.92,6.19-6.89Z"/>
          <path class="cls-3" d="m292.42,48.56l-5.89-5.29c-.59-.53-.64-1.44-.11-2.03s1.44-.64,2.03-.11l5.89,5.29-1.92,2.14Z"/>
          <path class="cls-3" d="m286.73,54.89l-5.89-5.29c-.59-.53-.64-1.44-.11-2.03s1.44-.64,2.03-.11l5.89,5.29-1.92,2.14Z"/>
        </g>
      </g>
      <g>
        <path class="cls-3" d="m371.16,95.38h14.8c4.2,0,7.6,3.41,7.6,7.6v24.08c0,4.19-3.41,7.6-7.6,7.6h-14.81c-4.19,0-7.6-3.41-7.6-7.6v-24.08c0-4.2,3.41-7.6,7.6-7.6Z" transform="translate(52.35 338.9) rotate(-51.36)"/>
        <g>
          <path class="cls-3" d="m384.98,106.99c4.43,3.54,5.16,10.01,1.61,14.45s-10.01,5.16-14.45,1.61-5.15-10.01-1.61-14.45c3.54-4.43,10.01-5.15,14.45-1.61Z"/>
          <path class="cls-3" d="m378.8,119.06c.06.06.13.13.2.18,1.31,1.04,3.21.83,4.26-.48s.83-3.21-.47-4.26c-.07-.06-.15-.11-.22-.16l-3.77,4.71Z"/>
          <line class="cls-3" x1="372.25" y1="114.15" x2="375.91" y2="117.09"/>
          <line class="cls-3" x1="376.13" y1="109.3" x2="379.8" y2="112.23"/>
        </g>
        <g>
          <path class="cls-3" d="m390.04,132.11l-6.45,8.07c-2.61,3.27-2.08,8.03,1.19,10.64h0c3.26,2.61,8.03,2.08,10.64-1.19l6.45-8.07"/>
          <path class="cls-3" d="m415.36,137.31l-4.65,5.81c-2.6,3.25-7.47,3.68-10.87.96s-4.05-7.56-1.45-10.81l4.65-5.81,12.32,9.85Z"/>
          <path class="cls-3" d="m411.15,137.67l-2.84,3.55c-1.59,1.99-4.56,2.25-6.64.59s-2.48-4.62-.89-6.61l2.84-3.55,7.53,6.02Z"/>
          <path class="cls-3" d="m411.47,134.19l5.15-6.44c.52-.65,1.46-.75,2.11-.23s.75,1.46.24,2.1l-5.15,6.44-2.34-1.87Z"/>
          <path class="cls-3" d="m404.54,128.65l5.15-6.44c.52-.65,1.46-.75,2.1-.23s.75,1.46.24,2.1l-5.15,6.44-2.34-1.87Z"/>
        </g>
      </g>
      <g>
        <path class="cls-3" d="m416.79,65.77c-.03-.14-.07-.27-.1-.41-.01-.04-.02-.08-.04-.12-1.31-5.52-6.75-9.1-12.39-8.06s-9.67,6.68-8.6,12.5l-.08-.43c-1.08-5.83-6.68-9.67-12.51-8.59s-9.43,6.34-8.68,11.96c0,.04,0,.08,0,.13.01.14.03.28.05.42,1.81,13.2,25.91,21.89,25.91,21.89,0,0,19.47-16.32,16.43-29.29Z"/>
        <g>
          <path class="cls-3" d="m398.93,86.36c7.12-18.73-13.97-15.51-13.97-15.51,0,0-5.4,20.64,13.97,15.51"/>
          <path class="cls-3" d="m388.67,74.96l10.27,11.4s3.86,4.06,9.67.21"/>
          <path class="cls-3" d="m392.72,79.47s2.42-1.79,1.19-5.34"/>
          <path class="cls-3" d="m392.72,79.47s-2.03,2.22-5.43.63"/>
          <path class="cls-3" d="m395.75,82.83s3.13-2.31,1.54-6.9"/>
          <path class="cls-3" d="m395.75,82.83s-2.63,2.87-7.02.81"/>
        </g>
      </g>
      <g>
        <g>
          <path class="cls-3" d="m234.01,220.06c17.31-28.47-18.14-29.6-18.14-29.6,0,0-15.09,32.11,18.14,29.6"/>
          <path class="cls-3" d="m220.68,198.31l13.33,21.75s5.09,7.8,15.74,3.27"/>
          <path class="cls-3" d="m225.95,206.9s4.5-2.19,3.57-8.36"/>
          <path class="cls-3" d="m225.95,206.9s-4,3.02-9.07-.62"/>
          <path class="cls-3" d="m229.88,213.32s5.81-2.83,4.61-10.81"/>
          <path class="cls-3" d="m229.88,213.32s-5.16,3.9-11.72-.79"/>
        </g>
        <g>
          <path class="cls-3" d="m223,173.45c19.83,26.79,34.26-5.62,34.26-5.62,0,0-24.03-26.09-34.26,5.62"/>
          <path class="cls-3" d="m248.18,169.32l-25.17,4.13s-9.14,1.76-8.97,13.34"/>
          <path class="cls-3" d="m238.24,170.95s.33,4.99,6.4,6.46"/>
          <path class="cls-3" d="m238.24,170.95s-1.28-4.84,4-8.17"/>
          <path class="cls-3" d="m230.81,172.17s.43,6.46,8.27,8.35"/>
          <path class="cls-3" d="m230.81,172.17s-1.66-6.25,5.16-10.55"/>
        </g>
        <g>
          <path class="cls-3" d="m268.6,186.28c-32.81,5.81-10.24,33.17-10.24,33.17,0,0,34.07-9.88,10.24-33.17"/>
          <path class="cls-3" d="m261.08,210.66l7.52-24.38s2.5-8.97-7.94-13.98"/>
          <path class="cls-3" d="m264.05,201.04s-4.62-1.93-8.63,2.85"/>
          <path class="cls-3" d="m264.05,201.04s4.9,1.01,5.53,7.22"/>
          <path class="cls-3" d="m266.27,193.84s-5.97-2.49-11.16,3.68"/>
          <path class="cls-3" d="m266.27,193.84s6.34,1.31,7.15,9.33"/>
        </g>
      </g>
      <g>
        <g>
          <path class="cls-3" d="m3.69,218.18c-8.9-36.5-38.06-9.13-38.06-9.13,0,0,13.57,37.62,38.06,9.13"/>
          <path class="cls-3" d="m-24.28,211.47l27.97,6.71s10.27,2.16,15.16-9.95"/>
        </g>
        <g>
          <path class="cls-3" d="m4.34,163.67c-21.52,30.79,18.28,34.61,18.28,34.61,0,0,19.28-35.04-18.28-34.61"/>
          <path class="cls-3" d="m17.77,189.1l-13.44-25.43s-5.16-9.14-17.47-4.81"/>
          <path class="cls-3" d="m12.47,179.06s-5.22,2.14-4.61,9.16"/>
          <path class="cls-3" d="m12.47,179.06s4.71-3.11,10.16,1.35"/>
          <path class="cls-3" d="m8.5,171.56s-6.75,2.77-5.96,11.83"/>
          <path class="cls-3" d="m8.5,171.56s6.09-4.01,13.13,1.74"/>
        </g>
      </g>
      <g>
        <path class="cls-3" d="m426.85,262l-11.38-11.38-8.82,8.82c-1.31-.71-2.66-1.3-4.04-1.77v-12.79s-16.1,0-16.1,0v12.47c-1.4.42-2.77.96-4.1,1.61l-9.05-9.05-11.38,11.38,8.82,8.82c-.71,1.31-1.29,2.66-1.76,4.04h-12.79s0,16.1,0,16.1h12.47c.42,1.4.96,2.77,1.61,4.1l-9.05,9.05,11.38,11.38,8.82-8.82c1.31.71,2.66,1.29,4.04,1.77v12.79s16.1,0,16.1,0v-12.48c1.4-.42,2.77-.96,4.1-1.61l9.05,9.05,11.38-11.38-8.82-8.82c.71-1.31,1.3-2.66,1.77-4.04h12.79s0-16.1,0-16.1h-12.47c-.42-1.4-.96-2.77-1.61-4.1l9.05-9.05Z"/>
        <path class="cls-3" d="m407.86,268.92c7.62,7.62,7.62,19.97,0,27.59-7.62,7.62-19.97,7.62-27.59,0s-7.62-19.97,0-27.59c7.62-7.62,19.97-7.62,27.59,0Z"/>
        <path class="cls-3" d="m405.87,294.52c-30.52,9.81-23.61-23.61-23.61-23.61,0,0,33.42-6.9,23.61,23.61"/>
      </g>
      <g>
        <path class="cls-3" d="m50.47-6.5h27.34c5.12,0,9.28,4.16,9.28,9.28v54.86c0,5.12-4.16,9.28-9.28,9.28h-27.35c-5.12,0-9.28-4.16-9.28-9.28V2.78c0-5.12,4.16-9.28,9.28-9.28Z" transform="translate(-2.57 54.2) rotate(-45)"/>
        <path class="cls-3" d="m63.75,7.3s-.06-.07-.1-.11c-4.44-4.44-13-3.07-19.13,3.05-6.12,6.12-7.49,14.69-3.05,19.13.03.03.07.06.11.1L63.75,7.3Z"/>
        <rect class="cls-3" x="55.8" y="20.81" width="31.37" height="32.81" transform="translate(-5.37 61.45) rotate(-45)"/>
        <line class="cls-3" x1="52.49" y1="18.56" x2="52.46" y2="10.45"/>
        <g>
          <path class="cls-3" d="m80.39,46.11c-22.94,7.37-17.75-17.75-17.75-17.75,0,0,25.12-5.19,17.75,17.75"/>
          <line class="cls-3" x1="67.35" y1="33.07" x2="83.09" y2="48.81"/>
          <path class="cls-3" d="m72.5,38.22s-2.3,2.79-6.48,1.09"/>
          <path class="cls-3" d="m72.5,38.22s2.79-2.3,1.1-6.48"/>
          <path class="cls-3" d="m76.35,42.07s-2.97,3.61-8.37,1.42"/>
          <path class="cls-3" d="m76.35,42.07s3.61-2.97,1.42-8.37"/>
        </g>
        <rect class="cls-3" x="93" y="23.05" width="6.42" height="4.45" transform="translate(10.31 75.44) rotate(-45)"/>
        <polyline class="cls-3" points="98.48 23.01 100.98 20.51 83.51 3.04 68.1 -12.38 58.65 -12.29"/>
        <rect class="cls-3" x="71.26" y="-10.26" width="6.75" height="18.38" transform="translate(22.62 52.46) rotate(-45)"/>
      </g>
      <g>
        <path class="cls-3" d="m250.13,28.71c-16.53-51.46,39.82-39.82,39.82-39.82,0,0,11.64,56.35-39.82,39.82"/>
        <line class="cls-3" x1="279.39" y1="-.55" x2="241.46" y2="37.38"/>
        <path class="cls-3" d="m267.84,11s-6.27-5.16-2.46-14.54"/>
        <path class="cls-3" d="m267.84,11s5.16,6.27,14.54,2.46"/>
        <path class="cls-3" d="m259.2,19.64s-8.1-6.67-3.18-18.79"/>
        <path class="cls-3" d="m259.2,19.64s6.67,8.1,18.79,3.18"/>
      </g>
      <g>
        <path class="cls-3" d="m143.71,222.76c26.54-48.08,60.5,0,60.5,0,0,0-33.97,48.08-60.5,0"/>
        <line class="cls-3" x1="188.17" y1="222.76" x2="130.54" y2="222.76"/>
        <path class="cls-3" d="m170.62,222.76s-.84-8.08,9.18-12.02"/>
        <path class="cls-3" d="m170.62,222.76s-.84,8.08,9.18,12.02"/>
        <path class="cls-3" d="m157.5,222.76s-1.09-10.45,11.86-15.53"/>
        <path class="cls-3" d="m157.5,222.76s-1.09,10.45,11.86,15.54"/>
      </g>
      <g>
        <path class="cls-3" d="m-7.08-8.1H6.91c1.07,0,1.94.87,1.94,1.94V1.53c0,1.07-.87,1.94-1.94,1.94H-7.09c-1.07,0-1.94-.87-1.94-1.94v-7.69c0-1.07.87-1.94,1.94-1.94Z"/>
        <path class="cls-3" d="m-8.68-3.65H8.51c1.55,0,2.81,1.26,2.81,2.81v39.92c0,1.55-1.26,2.81-2.81,2.81H-8.68c-1.55,0-2.81-1.26-2.81-2.81V-.84c0-1.55,1.26-2.81,2.81-2.81Z"/>
        <path class="cls-3" d="m11.32,16.21v22.87c0,1.55-1.26,2.81-2.81,2.81H-8.68c-1.55,0-2.81-1.26-2.81-2.81v-22.87H11.32Z"/>
        <line class="cls-3" x1="7.94" y1="21.46" x2="7.94" y2="37.37"/>
      </g>
      <g>
        <path class="cls-3" d="m188.29,3.47c0-8.5-6.89-15.39-15.39-15.39s-15.39,6.89-15.39,15.39c0,3.62,1.25,6.95,3.34,9.57-.02,0-.03.01-.03.01,0,0,6.58,8,6.8,16.22h10.61c.23-8.22,6.8-16.22,6.8-16.22-.02-.02-.04-.03-.06-.05,2.07-2.62,3.31-5.93,3.31-9.54Z"/>
        <path class="cls-3" d="m179.37,30.79c0,.9-.73,1.63-1.63,1.63h-9.69c-.9,0-1.63-.73-1.63-1.63h0c0-.9.73-1.63,1.63-1.63h9.69c.9,0,1.63.73,1.63,1.63h0Z"/>
        <path class="cls-3" d="m179.37,34.05c0,.9-.73,1.63-1.63,1.63h-9.69c-.9,0-1.63-.73-1.63-1.63h0c0-.9.73-1.63,1.63-1.63h9.69c.9,0,1.63.73,1.63,1.63h0Z"/>
        <path class="cls-3" d="m177.77,36.84c0,.68-.55,1.23-1.23,1.23h-7.3c-.68,0-1.23-.55-1.23-1.23h0c0-.68.55-1.23,1.23-1.23h7.3c.68,0,1.23.55,1.23,1.23h0Z"/>
        <g>
          <path class="cls-3" d="m172.89,21.55C154.5,12.1,172.89,0,172.89,0c0,0,18.39,12.1,0,21.54"/>
          <line class="cls-3" x1="172.89" y1="5.72" x2="172.89" y2="29.16"/>
          <path class="cls-3" d="m172.89,11.97s-3.09.3-4.6-3.27"/>
          <path class="cls-3" d="m172.89,11.97s3.09.3,4.6-3.27"/>
          <path class="cls-3" d="m172.89,16.64s-4,.39-5.94-4.22"/>
          <path class="cls-3" d="m172.89,16.64s4,.39,5.94-4.22"/>
        </g>
      </g>
      <g>
        <path class="cls-3" d="m124.29,294.89c0,12.64-9.37,23.08-21.55,24.76h0c-1.13.16-2.28.24-3.45.24-1.44,0-2.84-.12-4.21-.35-11.8-2-20.79-12.28-20.79-24.65s9.37-23.08,21.55-24.76c1.13-.16,2.28-.24,3.45-.24,1.44,0,2.85.12,4.21.35t0,0c11.8,2.01,20.78,12.28,20.78,24.65Z"/>
        <g>
          <path class="cls-3" d="m124.29,294.89c0,12.64-9.37,23.08-21.55,24.76h0c-1.31-.22-2.58-.55-3.82-.96-10-3.39-17.13-12.93-16.96-24.07.17-11.13,7.59-20.45,17.69-23.53,1.25-.38,2.53-.67,3.85-.85t0,0c11.8,2.01,20.78,12.28,20.78,24.65Z"/>
          <path class="cls-3" d="m116.62,295.15c-.17,11.13-7.59,20.45-17.7,23.53-1.24.38-2.53.67-3.85.85-11.8-2-20.79-12.28-20.79-24.65s9.37-23.08,21.55-24.76c1.31.22,2.59.55,3.82.96,10.01,3.39,17.13,12.93,16.96,24.07Z"/>
        </g>
        <line class="cls-3" x1="99.65" y1="271.09" x2="98.92" y2="318.69"/>
      </g>
      <g>
        <path class="cls-3" d="m449.85,210.41c-11.56,0-20.94,9.27-21.15,20.78h-1.91l3.47,6.94,3.47-6.94h-2.33c.2-10.24,8.56-18.48,18.85-18.48"/>
        <path class="cls-3" d="m431.38,244.79c5.94,9.91,18.72,13.2,28.69,7.45l.98,1.64,4.17-6.55-7.74.59,1.2,2c-8.88,5.09-20.25,2.16-25.54-6.66"/>
        <path class="cls-3" d="m469.45,244.12c6.6-9.49,4.36-22.49-4.98-29.22l1.09-1.57-7.68-1.11,3.71,6.81,1.33-1.91c8.29,6.01,10.28,17.58,4.4,26.03"/>
      </g>
      <polygon class="cls-3" points="278.51 225 269.11 246.39 277.33 249.91 267.43 272.98 290.37 246.03 281.61 243.07 289.03 229.18 283.29 226.86 278.51 225"/>
      <g>
        <polyline class="cls-3" points="536.1 192.02 533.8 186.3 539.55 183.99"/>
        <path class="cls-3" d="m571.51,182.4l-26.19-10.25-11.84,25.51,3.87-1.55,8.11,20.2c.68,1.7,2.61,2.52,4.3,1.84l24.14-9.69c1.7-.68,2.52-2.61,1.84-4.3l-8.11-20.2,3.87-1.55Z"/>
        <g>
          <path class="cls-3" d="m554.39,209.94c-17.45-13.07,3.8-22.39,3.8-22.39,0,0,16.98,15.82-3.8,22.39"/>
          <path class="cls-3" d="m557.18,193.48l-2.79,16.45s-1.19,5.98-8.76,5.82"/>
          <path class="cls-3" d="m556.08,199.98s-3.27-.23-4.2-4.21"/>
          <path class="cls-3" d="m556.08,199.98s3.16.86,5.36-2.58"/>
          <path class="cls-3" d="m555.26,204.83s-4.22-.3-5.43-5.44"/>
          <path class="cls-3" d="m555.26,204.83s4.08,1.11,6.92-3.34"/>
        </g>
      </g>
      <g>
        <path class="cls-3" d="m434.97,180.69l11.23,17.53h0c1.68,2.38,4.96,3.03,7.44,1.45l23.42-15c2.48-1.59,3.25-4.84,1.8-7.36h0s-11.23-17.53-11.23-17.53l-32.67,20.92Z"/>
        <rect class="cls-3" x="435.1" y="171.42" width="9.92" height="5.5" transform="translate(-24.45 264.83) rotate(-32.64)"/>
        <rect class="cls-3" x="455.13" y="158.59" width="9.92" height="5.5" transform="translate(-14.37 273.6) rotate(-32.64)"/>
        <line class="cls-3" x1="446.91" y1="183.22" x2="450.96" y2="189.54"/>
        <line class="cls-3" x1="452.1" y1="184.35" x2="445.77" y2="188.4"/>
        <line class="cls-3" x1="469.26" y1="173.36" x2="462.93" y2="177.41"/>
      </g>
      <g>
        <polygon class="cls-3" points="605.23 91.63 568.48 91.63 573.37 53.13 600.11 53.13 605.23 91.63"/>
        <g>
          <path class="cls-3" d="m586.55,65.01c-5.69,0-10.32,4.56-10.41,10.23h-.94l1.71,3.42,1.71-3.42h-1.15"/>
          <path class="cls-3" d="m577.45,81.94c2.93,4.88,9.22,6.5,14.13,3.67l.49.81,2.05-3.23-3.81.29.59.98"/>
        </g>
        <path class="cls-3" d="m578.79,58.48c0,.95-.77,1.72-1.72,1.72s-1.72-.77-1.72-1.72.77-1.72,1.72-1.72,1.72.77,1.72,1.72Z"/>
        <path class="cls-3" d="m577.08,58.48v-7.22c0-.05,0-.1,0-.16,0-5.23,4.24-9.47,9.47-9.47s9.47,4.24,9.47,9.47c0,.05,0,.1,0,.16v7.22"/>
      </g>
      <g>
        <path class="cls-3" d="m105.96,196.61l9.89,29.5c1.11,3.31-.67,6.89-3.98,8l-21.68,7.26c-3.31,1.11-6.89-.67-8-3.98l-11.87-35.43c-1.11-3.31.67-6.89,3.98-8l15.38-5.15,15.91,7.92.37-.12Z"/>
        <path class="cls-3" d="m105.96,196.61l-6.3,2.11c-3.31,1.11-6.89-.67-8-3.98l-1.99-5.92,16.28,7.8Z"/>
        <line class="cls-3" x1="78.81" y1="209.07" x2="100.24" y2="201.88"/>
        <line class="cls-3" x1="80.65" y1="214.57" x2="102.08" y2="207.38"/>
        <g>
          <path class="cls-3" d="m86.76,238.31c-15.59-21.2,12.22-24.54,12.22-24.54,0,0,14.09,24.21-12.22,24.54"/>
          <line class="cls-3" x1="95.74" y1="220.28" x2="85.4" y2="241.05"/>
          <path class="cls-3" d="m92.2,227.4s-3.69-1.41-3.38-6.33"/>
          <path class="cls-3" d="m92.2,227.4s3.35,2.1,7.09-1.11"/>
          <path class="cls-3" d="m89.55,232.72s-4.77-1.83-4.37-8.18"/>
          <path class="cls-3" d="m89.55,232.72s4.33,2.71,9.17-1.44"/>
        </g>
        <polygon class="cls-3" points="105.96 196.61 106.03 196.83 105.84 196.85 105.59 196.73 105.96 196.61"/>
      </g>
      <g>
        <polyline class="cls-3" points="582.52 136.69 582.52 162.76 585.17 162.76 585.17 137.18"/>
        <path class="cls-3" d="m569.18,135.58c0-8.51,6.9-15.4,15.4-15.4"/>
        <path class="cls-3" d="m578.68,139.93l-11.82,11.82s-3.28-16.41,15.98-15.98"/>
        <path class="cls-3" d="m588.17,139.82l11.82,11.82s-16.41,3.28-15.98-15.98"/>
        <path class="cls-3" d="m586,135.61c0,1.19-.96,2.15-2.15,2.15s-2.15-.96-2.15-2.15.96-2.15,2.15-2.15,2.15.96,2.15,2.15Z"/>
        <line class="cls-3" x1="592.03" y1="162.76" x2="577.04" y2="162.76"/>
      </g>
      <g>
        <path class="cls-3" d="m544.31,146.31c0-.16-.02-.33-.03-.49,0-.05-.01-.1-.02-.15-.33-6.64-5.82-11.92-12.55-11.92s-12.56,5.63-12.56,12.56v-.51c0-6.94-5.63-12.56-12.56-12.56s-12.21,5.28-12.55,11.92c0,.05-.01.1-.02.15-.01.16-.02.33-.03.49-.73,15.58,25.16,30.73,25.16,30.73,0,0,25.89-14.63,25.16-30.22Z"/>
        <g>
          <path class="cls-3" d="m519.36,166.21c12.19-20.05-12.78-20.84-12.78-20.84,0,0-10.62,22.61,12.78,20.84"/>
          <path class="cls-3" d="m509.97,150.9l9.39,15.31s3.58,5.49,11.08,2.3"/>
          <path class="cls-3" d="m513.68,156.94s3.17-1.54,2.51-5.89"/>
          <path class="cls-3" d="m513.68,156.94s-2.81,2.12-6.39-.44"/>
          <path class="cls-3" d="m516.45,161.46s4.1-2,3.24-7.61"/>
          <path class="cls-3" d="m516.45,161.46s-3.64,2.74-8.25-.56"/>
        </g>
      </g>
      <g>
        <g>
          <path class="cls-3" d="m329.96,17.35c13.01-21.4-13.64-22.25-13.64-22.25,0,0-11.34,24.13,13.64,22.25"/>
          <path class="cls-3" d="m319.94,1.01l10.02,16.35s3.82,5.86,11.83,2.46"/>
          <path class="cls-3" d="m323.9,7.46s3.38-1.65,2.68-6.29"/>
          <path class="cls-3" d="m323.9,7.46s-3.01,2.27-6.82-.46"/>
          <path class="cls-3" d="m326.86,12.28s4.37-2.13,3.46-8.12"/>
          <path class="cls-3" d="m326.86,12.28s-3.88,2.93-8.81-.6"/>
        </g>
        <g>
          <path class="cls-3" d="m355.96-8.04c-24.66,4.37-7.7,24.93-7.7,24.93,0,0,25.61-7.43,7.7-24.93"/>
          <path class="cls-3" d="m350.31,10.28l5.65-18.32s1.88-6.74-5.97-10.51"/>
          <path class="cls-3" d="m352.54,3.05s-3.47-1.45-6.49,2.14"/>
          <path class="cls-3" d="m352.54,3.05s3.69.76,4.16,5.43"/>
          <path class="cls-3" d="m354.21-2.36s-4.49-1.87-8.38,2.77"/>
          <path class="cls-3" d="m354.21-2.36s4.76.98,5.37,7.01"/>
        </g>
      </g>
      <g>
        <g>
          <path class="cls-3" d="m169.63,283.74c24.33-5.93,6.09-25.37,6.09-25.37,0,0-25.08,9.05-6.09,25.37"/>
          <path class="cls-3" d="m174.1,265.09l-4.47,18.64s-1.44,6.85,6.63,10.1"/>
          <path class="cls-3" d="m172.34,272.46s3.56,1.23,6.34-2.55"/>
          <path class="cls-3" d="m172.34,272.46s-3.73-.52-4.49-5.15"/>
          <path class="cls-3" d="m171.02,277.96s-4.82-.67-5.81-6.65"/>
        </g>
        <g>
          <path class="cls-3" d="m188.55,253.12c-3.7,24.77,21.2,15.22,21.2,15.22,0,0,1.1-26.64-21.2-15.22"/>
          <path class="cls-3" d="m204.12,264.3l-15.57-11.18s-5.8-3.92-11.86,2.32"/>
          <path class="cls-3" d="m197.97,259.89s-2.48,2.83-.03,6.83"/>
          <path class="cls-3" d="m197.97,259.89s1.89-3.25,6.46-2.21"/>
          <path class="cls-3" d="m193.38,256.59s-3.2,3.66-.04,8.83"/>
          <path class="cls-3" d="m193.38,256.59s2.44-4.21,8.35-2.86"/>
        </g>
        <path class="cls-3" d="m189.01,293.13l16.95-8.96s6.1-3.44,3.21-11.65"/>
      </g>
      <g>
        <path class="cls-3" d="m494.13,43.29v-10.73h-8.32c-.28-.95-.64-1.86-1.07-2.74l6.03-6.03-7.59-7.59-5.88,5.88c-.86-.46-1.76-.85-2.69-1.17v-8.53h-10.73v8.32c-.95.28-1.86.64-2.74,1.07l-6.03-6.03-7.59,7.59,5.88,5.88c-.46.86-.86,1.76-1.17,2.69h-8.53v10.73h8.32c.28.95.64,1.86,1.07,2.74l-6.03,6.03,7.59,7.59,5.88-5.88c.86.46,1.76.85,2.69,1.17v8.53h10.73v-8.32c.95-.28,1.86-.64,2.74-1.07l6.03,6.03,7.59-7.59-5.88-5.88c.46-.86.85-1.76,1.17-2.69h8.53Z"/>
        <path class="cls-3" d="m481.91,37.6c0,7.18-5.82,13.01-13.01,13.01s-13.01-5.82-13.01-13.01,5.82-13.01,13.01-13.01,13.01,5.82,13.01,13.01Z"/>
        <g>
          <path class="cls-3" d="m468.91,48.73c-19.01-9.76,0-22.26,0-22.26,0,0,19.01,12.5,0,22.26"/>
          <line class="cls-3" x1="468.91" y1="32.37" x2="468.91" y2="48.47"/>
          <path class="cls-3" d="m468.91,38.83s-3.19.31-4.75-3.38"/>
          <path class="cls-3" d="m468.91,38.83s3.19.31,4.75-3.38"/>
          <path class="cls-3" d="m468.91,43.66s-4.13.4-6.14-4.36"/>
          <path class="cls-3" d="m468.91,43.66s4.13.4,6.14-4.36"/>
        </g>
      </g>
      <g>
        <path class="cls-3" d="m578.69,243.62c-12.4-38.6,29.86-29.87,29.86-29.87,0,0,8.73,42.26-29.86,29.87"/>
        <line class="cls-3" x1="600.63" y1="221.67" x2="572.18" y2="250.12"/>
        <path class="cls-3" d="m585.49,236.82s-6.08-5-2.38-14.09"/>
      </g>
      <g>
        <g>
          <path class="cls-3" d="m125.08,19.16c5.31-16.52-12.78-12.78-12.78-12.78,0,0-3.74,18.08,12.78,12.78"/>
          <line class="cls-3" x1="115.69" y1="9.77" x2="127.86" y2="21.94"/>
        </g>
        <g>
          <rect class="cls-3" x="126.01" y="-10.82" width="17.11" height="34.16" rx="2.11" ry="2.11"/>
          <path class="cls-3" d="m143.12,4.07v17.15c0,1.17-.94,2.11-2.11,2.11h-12.89c-1.16,0-2.11-.94-2.11-2.11V4.07h17.11Z"/>
          <line class="cls-3" x1="140.59" y1="8.01" x2="140.59" y2="19.94"/>
        </g>
      </g>
      <g>
        <g>
          <path class="cls-3" d="m156.14,126.76c-3.16-14.61-15.05-4.03-15.05-4.03,0,0,5,15.11,15.05,4.03"/>
          <line class="cls-3" x1="145.08" y1="123.8" x2="159.41" y2="127.64"/>
        </g>
        <g>
          <path class="cls-3" d="m146.21,97.3h9.05c.69,0,1.26.56,1.26,1.26v4.98c0,.69-.56,1.25-1.25,1.25h-9.05c-.69,0-1.25-.56-1.25-1.25v-4.97c0-.69.56-1.26,1.26-1.26Z" transform="translate(-30.33 88.9) rotate(-30)"/>
          <path class="cls-3" d="m152.1,98.32h11.11c1,0,1.82.81,1.82,1.82v25.81c0,1-.81,1.82-1.82,1.82h-11.11c-1,0-1.82-.81-1.82-1.82v-25.81c0-1,.81-1.82,1.82-1.82Z" transform="translate(-35.4 93.97) rotate(-30)"/>
          <path class="cls-3" d="m163.1,107.73l7.39,12.81c.5.87.2,1.98-.67,2.48l-9.62,5.56c-.87.5-1.98.2-2.48-.67l-7.39-12.81,12.77-7.37Z"/>
          <line class="cls-3" x1="162.91" y1="111.76" x2="168.05" y2="120.67"/>
        </g>
      </g>
      <g>
        <path class="cls-3" d="m115.5,102.92c4.83-6,3.89-14.79-2.12-19.62s-14.79-3.89-19.62,2.12c-2.06,2.55-3.07,5.62-3.08,8.66-.01,0-.02,0-.02,0,0,0,.1,9.39-4.42,15.32l7.49,6.03c4.83-5.68,14.02-7.58,14.02-7.58,0-.02,0-.05-.01-.07,2.95-.67,5.71-2.31,7.76-4.85Z"/>
        <path class="cls-3" d="m93.66,117.14c-.51.64-1.44.74-2.08.23l-6.84-5.51c-.64-.51-.74-1.44-.22-2.08h0c.51-.64,1.44-.74,2.08-.22l6.84,5.51c.64.51.73,1.44.22,2.08h0Z"/>
        <path class="cls-3" d="m91.81,119.45c-.51.64-1.44.74-2.08.22l-6.84-5.51c-.64-.51-.74-1.44-.22-2.08h0c.51-.64,1.44-.74,2.08-.22l6.84,5.51c.64.51.74,1.44.22,2.08h0Z"/>
        <path class="cls-3" d="m89.09,120.51c-.39.48-1.09.56-1.57.17l-5.16-4.15c-.48-.39-.55-1.09-.17-1.57h0c.39-.48,1.09-.55,1.57-.17l5.16,4.15c.48.39.56,1.09.17,1.57h0Z"/>
        <g>
          <path class="cls-3" d="m94.35,106.94c-7.62-17.13,12.25-15.21,12.25-15.21,0,0,6.11,19-12.25,15.21"/>
          <line class="cls-3" x1="103.35" y1="95.76" x2="90.02" y2="112.31"/>
          <path class="cls-3" d="m99.79,100.17s-2.35-1.55-1.39-4.92"/>
          <path class="cls-3" d="m99.79,100.17s2.01,1.97,5.11.31"/>
          <path class="cls-3" d="m97.14,103.47s-3.04-2-1.8-6.36"/>
          <path class="cls-3" d="m97.14,103.47s2.6,2.55,6.6.4"/>
        </g>
      </g>
      <g>
        <path class="cls-3" d="m247.51,111.74c-5.01-3.95-12.27-3.09-16.21,1.92-3.95,5.01-3.09,12.27,1.92,16.21,2.13,1.68,4.67,2.49,7.19,2.48,0,.01,0,.02,0,.02,0,0,7.76-.16,12.71,3.52l4.93-6.25c-4.74-3.95-6.39-11.54-6.39-11.54-.02,0-.04,0-.06.01-.58-2.44-1.96-4.71-4.08-6.38Z"/>
        <path class="cls-3" d="m259.46,129.68c.53.42.62,1.19.2,1.72l-4.5,5.7c-.42.53-1.19.62-1.72.2h0c-.53-.42-.62-1.19-.2-1.72l4.5-5.7c.42-.53,1.19-.62,1.72-.2h0Z"/>
        <path class="cls-3" d="m261.38,131.19c.53.42.62,1.19.2,1.72l-4.5,5.7c-.42.53-1.19.62-1.72.2h0c-.53-.42-.62-1.19-.2-1.72l4.5-5.7c.42-.53,1.19-.62,1.72-.2h0Z"/>
        <path class="cls-3" d="m262.29,133.43c.4.32.47.9.15,1.29l-3.39,4.3c-.31.4-.89.47-1.29.15h0c-.4-.32-.47-.89-.15-1.29l3.39-4.3c.31-.4.89-.47,1.29-.15h0Z"/>
        <g>
          <path class="cls-3" d="m251.01,129.2c-14.1,6.45-12.69-10-12.69-10,0,0,15.67-5.22,12.69,10"/>
          <line class="cls-3" x1="241.69" y1="121.85" x2="255.5" y2="132.74"/>
          <path class="cls-3" d="m245.37,124.75s-1.26,1.96-4.06,1.19"/>
          <path class="cls-3" d="m245.37,124.75s1.61-1.68.21-4.23"/>
          <path class="cls-3" d="m248.12,126.92s-1.63,2.53-5.25,1.54"/>
          <path class="cls-3" d="m248.12,126.92s2.08-2.17.27-5.46"/>
        </g>
      </g>
      <g>
        <path class="cls-3" d="m295.41,147.42c3.64,6.31,1.97,14.22-3.62,18.57h0c-.52.4-1.07.78-1.65,1.11-.72.41-1.45.76-2.2,1.04-6.47,2.4-13.91-.14-17.48-6.31-3.64-6.31-1.97-14.22,3.62-18.57.52-.4,1.07-.78,1.65-1.11.72-.41,1.46-.76,2.2-1.04t0,0c6.47-2.4,13.91.14,17.48,6.31Z"/>
        <g>
          <path class="cls-3" d="m295.41,147.42c3.64,6.31,1.97,14.22-3.62,18.57h0c-.72.27-1.45.47-2.18.62-5.97,1.19-12.28-1.52-15.4-7.12-3.12-5.6-2.11-12.39,2.05-16.85.51-.55,1.07-1.06,1.68-1.53t0,0c6.47-2.4,13.91.14,17.48,6.31Z"/>
          <path class="cls-3" d="m291.66,149.76c3.12,5.61,2.1,12.4-2.05,16.85-.51.55-1.07,1.06-1.68,1.53-6.47,2.4-13.91-.14-17.48-6.31-3.64-6.31-1.97-14.22,3.62-18.57.72-.27,1.45-.47,2.18-.62,5.97-1.19,12.28,1.52,15.4,7.12Z"/>
        </g>
        <line class="cls-3" x1="276.26" y1="142.64" x2="289.61" y2="166.61"/>
        <line class="cls-3" x1="270.45" y1="161.83" x2="295.41" y2="147.42"/>
        <polyline class="cls-3" points="268.53 155.04 272.39 152.81 286.7 144.55 290.49 142.36"/>
        <polyline class="cls-3" points="275.41 166.92 279.2 164.72 293.48 156.48 297.34 154.25"/>
      </g>
      <g>
        <path class="cls-3" d="m54.95,244.68c-9.33,0-16.92,7.49-17.08,16.78h-1.55l2.81,5.6,2.8-5.6h-1.88c.16-8.27,6.92-14.93,15.22-14.93"/>
        <path class="cls-3" d="m40.04,272.45c4.8,8.01,15.12,10.66,23.18,6.02l.79,1.33,3.37-5.29-6.25.48.97,1.61c-7.18,4.12-16.36,1.75-20.63-5.38"/>
        <path class="cls-3" d="m70.78,271.91c5.33-7.66,3.52-18.16-4.02-23.6l.88-1.27-6.2-.9,3,5.5,1.07-1.54c6.7,4.86,8.3,14.2,3.56,21.02"/>
      </g>
      <polygon class="cls-3" points="22.71 221.94 19.2 236.75 24.89 238.04 21.26 253.99 32.78 234.02 26.82 233.16 29.94 223.38 25.99 222.57 22.71 221.94"/>
      <polygon class="cls-3" points="360.59 209.54 369.04 224.89 374.89 221.6 384.12 238.01 378.52 212.06 372.77 215.93 367.87 205.18 363.87 207.54 360.59 209.54"/>
      <polygon class="cls-3" points="399.02 23.12 410.04 43.12 417.66 38.83 429.69 60.22 422.39 26.41 414.89 31.45 408.51 17.44 403.3 20.51 399.02 23.12"/>
      <g>
        <polyline class="cls-3" points="185.34 129.82 185.34 124.61 190.56 124.61"/>
        <path class="cls-3" d="m216.07,133.41l-17.28-16.25-17.28,16.25h3.52v18.35c0,1.54,1.25,2.79,2.79,2.79h21.93c1.54,0,2.79-1.25,2.79-2.79v-18.35h3.52Z"/>
        <g>
          <path class="cls-3" d="m194.02,149.58c-9.55-15.71,10.01-16.33,10.01-16.33,0,0,8.32,17.71-10.01,16.33"/>
          <path class="cls-3" d="m201.38,137.58l-7.35,12s-2.81,4.3-8.68,1.8"/>
          <path class="cls-3" d="m198.47,142.32s-2.48-1.21-1.97-4.61"/>
          <path class="cls-3" d="m198.47,142.32s2.21,1.66,5-.34"/>
          <path class="cls-3" d="m196.3,145.86s-3.21-1.56-2.54-5.96"/>
          <path class="cls-3" d="m196.3,145.86s2.85,2.15,6.47-.44"/>
        </g>
      </g>
      <g>
        <polyline class="cls-3" points="221.44 253.16 218.83 248.66 223.36 246.04"/>
        <path class="cls-3" d="m249.85,240.91l-23.09-5.43-6.84,22.71,3.05-1.76,9.18,15.9c.77,1.33,2.48,1.79,3.81,1.02l18.99-10.97c1.34-.77,1.79-2.48,1.02-3.81l-9.18-15.9,3.05-1.76Z"/>
        <g>
          <path class="cls-3" d="m238.84,265.94c-16.12-8.83.5-19.15.5-19.15,0,0,16.06,11.18-.5,19.15"/>
          <path class="cls-3" d="m239.21,251.87l-.37,14.07s-.28,5.13-6.62,5.9"/>
          <path class="cls-3" d="m239.06,257.42s-2.75.19-4.01-3.01"/>
          <path class="cls-3" d="m239.06,257.42s2.74.34,4.16-2.8"/>
          <path class="cls-3" d="m238.95,261.57s-3.56.25-5.18-3.89"/>
          <path class="cls-3" d="m238.95,261.57s3.54.44,5.38-3.61"/>
        </g>
      </g>
      <path class="cls-3" d="m425.76-14.3l10.07,17.43h0c1.52,2.37,4.66,3.15,7.12,1.73l23.29-13.45c2.47-1.43,3.36-4.53,2.06-7.03h0s-10.07-17.44-10.07-17.44l-32.49,18.76Z"/>
      <g>
        <g>
          <path class="cls-3" d="m509.59,3.6c-9.75-16.04,10.22-16.67,10.22-16.67,0,0,8.5,18.09-10.22,16.67"/>
          <path class="cls-3" d="m517.1-8.66l-7.51,12.25s-2.86,4.4-8.87,1.84"/>
          <path class="cls-3" d="m511.92-.2s-3.28-1.6-2.6-6.09"/>
          <path class="cls-3" d="m511.92-.2s2.91,2.19,6.6-.45"/>
        </g>
        <path class="cls-3" d="m492.02-28.4h13.13c1.19,0,2.15.96,2.15,2.15V4.24c0,1.19-.96,2.15-2.15,2.15h-13.13c-1.18,0-2.15-.96-2.15-2.15v-30.49c0-1.19.96-2.15,2.15-2.15Z"/>
        <polygon class="cls-3" points="495.92 -22.41 493.08 -10.42 497.68 -9.37 494.74 3.55 504.08 -12.63 499.25 -13.33 501.78 -21.25 498.58 -21.9 495.92 -22.41"/>
      </g>
      <g>
        <polygon class="cls-3" points="417.67 206.61 390.11 206.61 393.77 177.73 413.83 177.73 417.67 206.61"/>
        <g>
          <path class="cls-3" d="m403.65,186.64c-4.27,0-7.74,3.42-7.81,7.67h-.71l1.28,2.56,1.28-2.56h-.86"/>
          <path class="cls-3" d="m396.83,199.34c2.19,3.66,6.91,4.87,10.6,2.75l.36.61,1.54-2.42-2.86.22.44.74"/>
          <path class="cls-3" d="m410.89,199.09c2.44-3.5,1.61-8.31-1.84-10.79l.41-.58-2.84-.41,1.37,2.52.49-.71"/>
        </g>
        <path class="cls-3" d="m397.84,181.75c0,.71-.58,1.29-1.29,1.29s-1.29-.58-1.29-1.29.58-1.29,1.29-1.29,1.29.58,1.29,1.29Z"/>
        <path class="cls-3" d="m411.91,181.75c0,.71-.58,1.29-1.29,1.29s-1.29-.58-1.29-1.29.58-1.29,1.29-1.29,1.29.58,1.29,1.29Z"/>
        <path class="cls-3" d="m396.55,181.75v-5.42s0-.08,0-.12c0-3.92,3.18-7.11,7.11-7.11s7.1,3.18,7.1,7.11c0,.04,0,.08,0,.12v5.42"/>
      </g>
      <g>
        <path class="cls-3" d="m515.03,202.2v23.34c0,2.62-2.12,4.74-4.74,4.74h-17.14c-2.62,0-4.74-2.12-4.74-4.74v-28.02c0-2.62,2.12-4.74,4.74-4.74h12.17l9.42,9.42h.29Z"/>
        <path class="cls-3" d="m515.03,202.2h-4.98c-2.62,0-4.74-2.12-4.74-4.74v-4.69l9.72,9.42Z"/>
        <line class="cls-3" x1="492.76" y1="204.6" x2="509.71" y2="204.6"/>
        <line class="cls-3" x1="492.76" y1="208.95" x2="509.71" y2="208.95"/>
        <g>
          <path class="cls-3" d="m491.45,227.29c-6.04-18.79,14.54-14.54,14.54-14.54,0,0,4.25,20.58-14.54,14.54"/>
          <line class="cls-3" x1="502.13" y1="216.61" x2="489.82" y2="228.91"/>
          <path class="cls-3" d="m497.91,220.82s-2.29-1.88-.9-5.31"/>
          <path class="cls-3" d="m497.91,220.82s1.89,2.29,5.31.9"/>
          <path class="cls-3" d="m494.76,223.98s-2.96-2.44-1.16-6.86"/>
          <path class="cls-3" d="m494.76,223.98s2.44,2.96,6.86,1.16"/>
        </g>
        <polygon class="cls-3" points="515.03 202.2 515.03 202.38 514.89 202.35 514.74 202.2 515.03 202.2"/>
      </g>
      <g>
        <path class="cls-3" d="m319.19,124.56c-.13-5.79-4.86-10.44-10.68-10.44s-10.55,4.65-10.68,10.44h21.36Z"/>
        <line class="cls-3" x1="308.51" y1="103.59" x2="308.51" y2="112.1"/>
        <line class="cls-3" x1="322.2" y1="108.67" x2="316.18" y2="114.69"/>
        <line class="cls-3" x1="314.41" y1="108.54" x2="313.02" y2="112.1"/>
        <line class="cls-3" x1="322" y1="115.95" x2="318.33" y2="117"/>
        <line class="cls-3" x1="293.81" y1="115.95" x2="297.48" y2="117"/>
        <line class="cls-3" x1="302.48" y1="109.23" x2="304.44" y2="112.51"/>
        <line class="cls-3" x1="294.82" y1="109.09" x2="300.84" y2="115.11"/>
        <path class="cls-3" d="m289.64,129.89c.1-4.27,2.77-7.91,6.52-9.42.77-.31,1.59-.53,2.44-.65.47-.07.96-.1,1.45-.1,5.67,0,10.27,4.53,10.4,10.17h-20.81Z"/>
        <path class="cls-3" d="m306.34,129.89c.1-4.27,2.77-7.91,6.52-9.42.77-.31,1.58-.53,2.43-.65.47-.07.96-.1,1.45-.1,5.67,0,10.28,4.53,10.4,10.17h-20.81Z"/>
      </g>
      <g>
        <path class="cls-3" d="m411.67-5.1c-3.01-4.95-9.43-6.61-14.47-3.7-5.04,2.91-6.81,9.3-4.03,14.38l18.5-10.68Z"/>
        <line class="cls-3" x1="385.39" y1=".13" x2="389.09" y2="-.8"/>
        <path class="cls-3" d="m388.75,14.28c-2.05-3.75-1.56-8.23.94-11.42.51-.65,1.11-1.25,1.79-1.78.38-.29.78-.57,1.2-.81,4.91-2.83,11.16-1.21,14.09,3.61l-18.02,10.4Z"/>
        <path class="cls-3" d="m403.2,5.94c-2.05-3.75-1.56-8.23.94-11.42.51-.65,1.11-1.25,1.78-1.78.38-.29.78-.56,1.2-.81,4.91-2.83,11.16-1.21,14.09,3.6l-18.02,10.4Z"/>
      </g>
      <g>
        <g>
          <path class="cls-3" d="m347.01,155.5c1.95-6.46-1.71-13.27-8.17-15.22s-13.27,1.71-15.22,8.17c-.83,2.75-.64,5.56.34,8.04-.01,0-.02,0-.02,0,0,0,3.17,7.58,1.45,13.88l8.06,2.43c2.05-6.19,8.88-10.76,8.88-10.76-.01-.02-.02-.03-.03-.05,2.18-1.52,3.87-3.75,4.7-6.49Z"/>
          <path class="cls-3" d="m332,176.37c-.16.52-.7.81-1.22.65l-5.55-1.67c-.52-.16-.81-.7-.65-1.21h0c.16-.52.7-.81,1.21-.65l5.55,1.67c.52.16.81.7.65,1.21h0Z"/>
        </g>
        <rect class="cls-3" x="326.07" y="165.91" width="7.05" height="10.06" transform="translate(70.81 437.18) rotate(-73.23)"/>
        <g>
          <path class="cls-3" d="m337.48,144.55c-4.32-1.3-8.88,1.11-10.26,5.39l-.72-.22.52,2.99,2.08-2.2-.87-.26"/>
          <path class="cls-3" d="m326.7,155.33c1.1,4.38,5.52,7.05,9.89,6.02l.18.72,2.3-1.98-2.96-.65.22.88"/>
          <path class="cls-3" d="m341.01,159.37c3.54-2.81,4.17-7.92,1.43-11.5l.59-.46-2.75-1.28.62,2.97.71-.56"/>
        </g>
      </g>
      <g>
        <path class="cls-3" d="m45.49,178.01h8.91c2.52,0,4.57,2.05,4.57,4.57v14.49c0,2.52-2.05,4.57-4.57,4.57h-8.91c-2.53,0-4.58-2.05-4.58-4.58v-14.49c0-2.53,2.05-4.58,4.58-4.58Z"/>
        <g>
          <path class="cls-3" d="m56.13,189.83c0,3.42-2.77,6.19-6.19,6.19s-6.19-2.77-6.19-6.19,2.77-6.19,6.19-6.19,6.19,2.77,6.19,6.19Z"/>
          <path class="cls-3" d="m48.13,191.46c0,.05,0,.11,0,.16,0,1.01.82,1.82,1.82,1.82s1.82-.82,1.82-1.82c0-.06,0-.11,0-.16h-3.63Z"/>
          <line class="cls-3" x1="47.98" y1="186.54" x2="47.98" y2="189.37"/>
          <line class="cls-3" x1="51.72" y1="186.54" x2="51.72" y2="189.37"/>
        </g>
        <g>
          <path class="cls-3" d="m46.22,201.65h-6.22c-2.52,0-4.56,2.04-4.56,4.56h0c0,2.52,2.04,4.56,4.56,4.56h6.22"/>
          <path class="cls-3" d="m53.3,215.51h-4.48c-2.51,0-4.54-2.13-4.54-4.75s2.03-4.75,4.54-4.75h4.48v9.5Z"/>
          <path class="cls-3" d="m51.54,213.67h-2.74c-1.53,0-2.77-1.3-2.77-2.9s1.24-2.9,2.77-2.9h2.74v5.81Z"/>
          <path class="cls-3" d="m53.3,212.51h4.96c.5,0,.9.4.9.9s-.4.9-.9.9h-4.96v-1.8Z"/>
          <path class="cls-3" d="m53.3,207.17h4.96c.5,0,.9.4.9.9s-.4.9-.9.9h-4.96v-1.8Z"/>
        </g>
      </g>
      <g>
        <path class="cls-3" d="m172.82,161.44h10.08c2.86,0,5.18,2.32,5.18,5.18v16.4c0,2.86-2.32,5.18-5.18,5.18h-10.08c-2.86,0-5.18-2.32-5.18-5.18v-16.4c0-2.86,2.32-5.18,5.18-5.18Z" transform="translate(-3.62 345.86) rotate(-87.81)"/>
        <g>
          <path class="cls-3" d="m178.13,167.82c3.86.15,6.87,3.4,6.73,7.26s-3.4,6.87-7.26,6.73-6.87-3.4-6.73-7.26,3.4-6.87,7.26-6.73Z"/>
          <path class="cls-3" d="m179.63,176.93c.06,0,.12.02.19.02,1.14.04,2.1-.84,2.14-1.98s-.84-2.1-1.98-2.14c-.06,0-.13,0-.19,0l-.16,4.1Z"/>
          <line class="cls-3" x1="174.06" y1="176.89" x2="177.25" y2="177.02"/>
          <line class="cls-3" x1="174.22" y1="172.66" x2="177.41" y2="172.78"/>
        </g>
        <g>
          <path class="cls-3" d="m191.07,179.53l-.27,7.03c-.11,2.84,2.11,5.24,4.95,5.35h0c2.84.11,5.24-2.11,5.35-4.95l.27-7.03"/>
          <path class="cls-3" d="m207.04,172.13l-.19,5.07c-.11,2.83-2.6,5.04-5.56,4.92s-5.28-2.5-5.17-5.34l.19-5.07,10.74.41Z"/>
          <path class="cls-3" d="m204.88,174.04l-.12,3.1c-.07,1.73-1.59,3.08-3.4,3.01s-3.23-1.53-3.16-3.26l.12-3.1,6.56.25Z"/>
          <path class="cls-3" d="m203.65,172l.21-5.61c.02-.56.5-1,1.06-.98s1,.49.98,1.06l-.21,5.61-2.04-.08Z"/>
          <path class="cls-3" d="m197.61,171.77l.21-5.61c.02-.56.5-1,1.06-.98s1,.49.98,1.06l-.21,5.61-2.04-.08Z"/>
        </g>
      </g>
      <g>
        <path class="cls-3" d="m149.21,258.22c0-.12-.01-.25-.02-.37,0-.04,0-.07-.01-.11-.25-4.98-4.37-8.94-9.41-8.94s-9.42,4.22-9.42,9.42v-.38c0-5.2-4.22-9.42-9.42-9.42s-9.16,3.96-9.41,8.94c0,.04,0,.07-.01.11,0,.12-.02.25-.02.37-.55,11.69,18.87,23.05,18.87,23.05,0,0,19.42-10.98,18.87-22.66Z"/>
        <g>
          <path class="cls-3" d="m130.5,273.15c9.14-15.04-9.58-15.63-9.58-15.63,0,0-7.97,16.96,9.58,15.63"/>
          <path class="cls-3" d="m123.46,261.67l7.04,11.49s2.68,4.12,8.31,1.73"/>
          <path class="cls-3" d="m126.24,266.2s2.38-1.16,1.88-4.42"/>
          <path class="cls-3" d="m126.24,266.2s-2.11,1.59-4.79-.33"/>
          <path class="cls-3" d="m128.31,269.59s3.07-1.5,2.43-5.71"/>
          <path class="cls-3" d="m128.31,269.59s-2.73,2.06-6.19-.42"/>
        </g>
      </g>
      <g>
        <path class="cls-3" d="m72.15,136.41c-.07-.1-.14-.21-.21-.31-.02-.03-.04-.06-.07-.09-2.71-4.19-8.25-5.56-12.62-3.04s-6.05,8.37-3.45,12.87l-.19-.33c-2.6-4.51-8.36-6.05-12.87-3.45-4.37,2.52-5.95,8.01-3.68,12.45.02.04.03.07.05.1.05.11.11.22.16.33,5.37,10.39,27.86,10.52,27.86,10.52,0,0,11.33-19.22,5.01-29.06Z"/>
        <g>
          <path class="cls-3" d="m63.41,158.7c.4-17.59-16.11-8.75-16.11-8.75,0,0,1.58,18.67,16.11,8.75"/>
          <path class="cls-3" d="m51.57,152.27l11.84,6.43s4.39,2.23,8.06-2.66"/>
          <path class="cls-3" d="m56.25,154.81s1.48-2.19-.58-4.77"/>
          <path class="cls-3" d="m56.25,154.81s-1.03,2.43-4.31,2.11"/>
          <path class="cls-3" d="m59.74,156.71s1.91-2.83-.75-6.16"/>
          <path class="cls-3" d="m59.74,156.71s-1.33,3.15-5.57,2.73"/>
        </g>
      </g>
      <g>
        <g>
          <path class="cls-3" d="m551.35,273.88c8.32-13.69-8.72-14.23-8.72-14.23,0,0-7.25,15.44,8.72,14.23"/>
          <path class="cls-3" d="m544.94,263.42l6.41,10.46s2.45,3.75,7.57,1.57"/>
          <path class="cls-3" d="m547.47,267.55s2.16-1.05,1.71-4.02"/>
          <path class="cls-3" d="m547.47,267.55s-1.92,1.45-4.36-.3"/>
          <path class="cls-3" d="m549.36,270.64s2.8-1.36,2.21-5.2"/>
          <path class="cls-3" d="m549.36,270.64s-2.48,1.87-5.64-.38"/>
        </g>
        <g>
          <path class="cls-3" d="m546.06,251.47c9.53,12.88,16.47-2.7,16.47-2.7,0,0-11.56-12.55-16.47,2.7"/>
          <path class="cls-3" d="m558.16,249.48l-12.1,1.99s-4.4.85-4.31,6.41"/>
          <path class="cls-3" d="m553.38,250.27s.16,2.4,3.08,3.11"/>
          <path class="cls-3" d="m553.38,250.27s-.62-2.33,1.92-3.93"/>
          <path class="cls-3" d="m549.81,250.85s.2,3.1,3.97,4.01"/>
          <path class="cls-3" d="m549.81,250.85s-.8-3.01,2.48-5.07"/>
        </g>
        <g>
          <path class="cls-3" d="m567.98,257.64c-15.78,2.79-4.92,15.95-4.92,15.95,0,0,16.38-4.75,4.92-15.95"/>
          <path class="cls-3" d="m564.36,269.36l3.62-11.72s1.2-4.31-3.82-6.72"/>
          <path class="cls-3" d="m565.79,264.73s-2.22-.93-4.15,1.37"/>
          <path class="cls-3" d="m565.79,264.73s2.36.48,2.66,3.47"/>
          <path class="cls-3" d="m566.86,261.27s-2.87-1.2-5.36,1.77"/>
          <path class="cls-3" d="m566.86,261.27s3.05.63,3.44,4.49"/>
        </g>
      </g>
      <g>
        <g>
          <path class="cls-3" d="m367.65,191.09c.4-17.43-15.96-8.66-15.96-8.66,0,0,1.56,18.49,15.96,8.66"/>
          <path class="cls-3" d="m355.92,184.72l11.73,6.37s4.35,2.2,7.99-2.64"/>
          <path class="cls-3" d="m360.55,187.23s1.46-2.17-.57-4.72"/>
          <path class="cls-3" d="m360.55,187.23s-1.02,2.41-4.27,2.09"/>
          <path class="cls-3" d="m364.02,189.11s1.89-2.8-.74-6.1"/>
          <path class="cls-3" d="m364.02,189.11s-1.32,3.12-5.52,2.71"/>
        </g>
        <g>
          <path class="cls-3" d="m350.47,172.85c15.99,6.95,14.05-11.51,14.05-11.51,0,0-17.71-5.54-14.05,11.51"/>
          <path class="cls-3" d="m360.8,164.4l-10.33,8.46s-3.68,3.19-.58,8.39"/>
          <path class="cls-3" d="m356.72,167.73s1.46,2.18,4.59,1.25"/>
          <path class="cls-3" d="m356.72,167.73s-1.85-1.86-.32-4.75"/>
          <path class="cls-3" d="m353.67,170.23s1.88,2.81,5.93,1.62"/>
          <path class="cls-3" d="m353.67,170.23s-2.39-2.4-.42-6.13"/>
        </g>
        <g>
          <path class="cls-3" d="m374.49,166.74c-13.35,11.21,4.04,17.71,4.04,17.71,0,0,12.85-13.39-4.04-17.71"/>
          <path class="cls-3" d="m377.46,179.75l-2.97-13.01s-1.21-4.72-7.25-4.26"/>
          <path class="cls-3" d="m376.28,174.61s-2.6.33-3.17,3.55"/>
          <path class="cls-3" d="m376.28,174.61s2.49-.83,4.39,1.82"/>
          <path class="cls-3" d="m375.41,170.77s-3.36.43-4.09,4.59"/>
          <path class="cls-3" d="m375.41,170.77s3.21-1.07,5.68,2.36"/>
        </g>
      </g>
      <g>
        <path class="cls-3" d="m239.99-.43v-8.05h-6.24c-.21-.71-.48-1.4-.8-2.05l4.52-4.52-5.69-5.69-4.41,4.41c-.64-.35-1.32-.64-2.02-.88v-6.4h-8.05v6.24c-.71.21-1.4.48-2.05.8l-4.52-4.52-5.69,5.69,4.41,4.41c-.35.64-.64,1.32-.88,2.02h-6.4V-.92h6.24c.21.71.48,1.4.8,2.05l-4.52,4.52,5.69,5.69,4.41-4.41c.64.35,1.32.64,2.02.88v6.4h8.05v-6.24c.71-.21,1.4-.48,2.05-.8l4.52,4.52,5.69-5.69-4.41-4.41c.35-.64.64-1.32.88-2.02h6.4Z"/>
        <path class="cls-3" d="m230.83-4.7c0,5.39-4.37,9.75-9.75,9.75s-9.76-4.37-9.76-9.75,4.37-9.75,9.76-9.75,9.75,4.37,9.75,9.75Z"/>
        <g>
          <path class="cls-3" d="m221.08,3.65c-14.26-7.32,0-16.7,0-16.7,0,0,14.25,9.37,0,16.7"/>
          <line class="cls-3" x1="221.08" y1="-8.62" x2="221.08" y2="3.45"/>
          <path class="cls-3" d="m221.08-.16s-3.1.3-4.61-3.27"/>
          <path class="cls-3" d="m221.08-.16s3.1.3,4.61-3.27"/>
        </g>
      </g>
      <g>
        <path class="cls-3" d="m377.02,44.94v-6.53h-5.06c-.17-.58-.39-1.13-.65-1.67l3.67-3.67-4.62-4.62-3.58,3.58c-.52-.28-1.07-.52-1.64-.71v-5.19h-6.53v5.06c-.58.17-1.13.39-1.67.65l-3.67-3.67-4.62,4.62,3.58,3.58c-.28.52-.52,1.07-.71,1.64h-5.19v6.53h5.06c.17.58.39,1.13.65,1.67l-3.67,3.67,4.62,4.62,3.58-3.58c.52.28,1.07.52,1.64.71v5.19h6.53v-5.06c.58-.17,1.13-.39,1.67-.65l3.67,3.67,4.62-4.62-3.58-3.58c.28-.52.52-1.07.71-1.64h5.19Z"/>
        <path class="cls-3" d="m369.59,41.47c0,4.37-3.54,7.92-7.92,7.92s-7.92-3.54-7.92-7.92,3.54-7.92,7.92-7.92,7.92,3.54,7.92,7.92Z"/>
        <g>
          <path class="cls-3" d="m361.67,48.25c-11.57-5.94,0-13.55,0-13.55,0,0,11.57,7.61,0,13.55"/>
          <line class="cls-3" x1="361.67" y1="38.29" x2="361.67" y2="48.09"/>
          <path class="cls-3" d="m361.67,42.22s-1.94.19-2.89-2.06"/>
          <path class="cls-3" d="m361.67,42.22s1.94.19,2.89-2.06"/>
          <path class="cls-3" d="m361.67,45.16s-2.51.24-3.74-2.66"/>
          <path class="cls-3" d="m361.67,45.16s2.51.24,3.74-2.66"/>
        </g>
      </g>
      <g>
        <path class="cls-3" d="m531.6,80.16h13.67c2.56,0,4.64,2.08,4.64,4.64v27.43c0,2.56-2.08,4.64-4.64,4.64h-13.67c-2.56,0-4.64-2.08-4.64-4.64v-27.43c0-2.56,2.08-4.64,4.64-4.64Z"/>
        <path class="cls-3" d="m546.4,90.27s0-.05,0-.07c0-3.14-3.51-5.68-7.84-5.68s-7.84,2.54-7.84,5.68c0,.02,0,.05,0,.07h15.68Z"/>
        <rect class="cls-3" x="530.71" y="95.38" width="15.69" height="16.4"/>
        <line class="cls-3" x1="538.44" y1="90.27" x2="541.29" y2="87.4"/>
        <path class="cls-3" d="m553.57,115.72c0,1.07-.87,1.94-1.94,1.94h-25.32c-1.07,0-1.94-.87-1.94-1.94h0c0-1.07.87-1.94,1.94-1.94h25.32c1.07,0,1.94.87,1.94,1.94h0Z"/>
        <g>
          <path class="cls-3" d="m538.56,109.88c-10.71-5.5,0-12.55,0-12.55,0,0,10.71,7.05,0,12.55"/>
          <line class="cls-3" x1="538.56" y1="100.66" x2="538.56" y2="111.79"/>
          <path class="cls-3" d="m538.56,104.3s-1.8.17-2.68-1.9"/>
          <path class="cls-3" d="m538.56,104.3s1.8.17,2.68-1.9"/>
          <path class="cls-3" d="m538.56,107.02s-2.33.23-3.46-2.46"/>
          <path class="cls-3" d="m538.56,107.02s2.33.23,3.46-2.46"/>
        </g>
        <rect class="cls-3" x="549.91" y="106.99" width="3.21" height="2.23"/>
        <polyline class="cls-3" points="553.12 108.11 554.89 108.11 554.89 95.75 554.89 84.85 551.52 81.54"/>
        <rect class="cls-3" x="551.52" y="86.57" width="3.37" height="9.19"/>
      </g>
      <g>
        <path class="cls-3" d="m127.24,53.65h13.67c2.56,0,4.64,2.08,4.64,4.64v27.43c0,2.56-2.08,4.64-4.64,4.64h-13.67c-2.56,0-4.64-2.08-4.64-4.64v-27.43c0-2.56,2.08-4.64,4.64-4.64Z" transform="translate(-18.04 76.69) rotate(-30)"/>
        <path class="cls-3" d="m136.85,60.9s-.02-.04-.03-.06c-1.57-2.72-5.88-3.17-9.63-1s-5.52,6.12-3.95,8.84c.01.02.03.04.04.06l13.58-7.84Z"/>
        <rect class="cls-3" x="128.88" y="68.14" width="15.69" height="16.4" transform="translate(-19.85 78.59) rotate(-30)"/>
        <line class="cls-3" x1="129.96" y1="64.87" x2="130.99" y2="60.96"/>
        <g>
          <path class="cls-3" d="m139.87,81.79c-12.03.59-6.28-10.87-6.28-10.87,0,0,12.8.74,6.28,10.87"/>
          <line class="cls-3" x1="135.26" y1="73.81" x2="140.82" y2="83.44"/>
          <path class="cls-3" d="m137.08,76.96s-1.47,1.05-3.27-.31"/>
          <path class="cls-3" d="m137.08,76.96s1.65-.75,1.37-2.99"/>
          <path class="cls-3" d="m138.44,79.32s-1.9,1.36-4.23-.4"/>
          <path class="cls-3" d="m138.44,79.32s2.13-.97,1.77-3.86"/>
        </g>
        <rect class="cls-3" x="148.6" y="72.66" width="3.21" height="2.23" transform="translate(-16.77 84.99) rotate(-30)"/>
        <polyline class="cls-3" points="151.59 72.98 153.13 72.09 146.95 61.39 141.5 51.95 136.92 50.77"/>
        <rect class="cls-3" x="141.5" y="53.66" width="3.37" height="9.19" transform="translate(-9.94 79.4) rotate(-30)"/>
      </g>
      <circle class="cls-3" cx="151.86" cy="42.53" r="3.59"/>
      <circle class="cls-3" cx="162.66" cy="62.64" r="3.59"/>
      <circle class="cls-3" cx="186.42" cy="44.12" r="3.59"/>
      <circle class="cls-3" cx="124.32" cy="36.85" r="3.59"/>
      <circle class="cls-3" cx="102.77" cy="64.44" r="3.59"/>
      <circle class="cls-3" cx="86.75" cy="75.34" r="3.59"/>
      <circle class="cls-3" cx="74.63" cy="91.16" r="3.59"/>
      <circle class="cls-3" cx="68.27" cy="120.77" r="3.59"/>
      <circle class="cls-3" cx="55.67" cy="76.4" r="3.59"/>
      <circle class="cls-3" cx="44.57" cy="56.44" r="3.59"/>
      <circle class="cls-3" cx="25.61" cy="44.77" r="3.59"/>
      <circle class="cls-3" cx="129.19" cy="106.46" r="3.59"/>
      <circle class="cls-3" cx="77.41" cy="175.66" r="3.59"/>
      <circle class="cls-3" cx="69.76" cy="236.04" r="3.59"/>
      <circle class="cls-3" cx="46.36" cy="231.32" r="3.59"/>
      <circle class="cls-3" cx="28.64" cy="211.88" r="3.59"/>
      <circle class="cls-3" cx="3.59" cy="235.66" r="3.59"/>
      <circle class="cls-3" cx="23.34" cy="264.81" r="3.59"/>
      <circle class="cls-3" cx="20.81" cy="151.05" r="3.59"/>
      <circle class="cls-3" cy="136.43" r="3.59"/>
      <circle class="cls-3" cy="149.41" r="3.59"/>
      <circle class="cls-3" cx="311.03" cy="44.14" r="3.59"/>
      <circle class="cls-3" cx="303.45" cy="22.6" r="3.59"/>
      <circle class="cls-3" cx="303.1" cy="1.18" r="3.59"/>
      <circle class="cls-3" cx="257.78" cy="58.29" r="3.59"/>
      <circle class="cls-3" cx="260.02" cy="41.23" r="3.59"/>
      <circle class="cls-3" cx="363.88" cy="147.39" r="3.59"/>
      <circle class="cls-3" cx="347.21" cy="128.19" r="3.59"/>
      <circle class="cls-3" cx="181.1" cy="115.56" r="3.59"/>
      <circle class="cls-3" cx="186.61" cy="99.26" r="3.59"/>
      <circle class="cls-3" cx="168.99" cy="87.71" r="3.59"/>
      <circle class="cls-3" cx="170.87" cy="147.97" r="3.59"/>
      <circle class="cls-3" cx="141.2" cy="140.01" r="3.59"/>
      <circle class="cls-3" cx="102.55" cy="182.45" r="3.59"/>
      <circle class="cls-3" cx="225.95" cy="146.35" r="3.59"/>
      <circle class="cls-3" cx="216.73" cy="112.7" r="3.59"/>
      <circle class="cls-3" cx="241.94" cy="95.85" r="3.59"/>
      <circle class="cls-3" cx="226.02" cy="98.76" r="3.59"/>
      <circle class="cls-3" cx="255.45" cy="104.82" r="3.59"/>
      <circle class="cls-3" cx="243.45" cy="81.71" r="3.59"/>
      <circle class="cls-3" cx="299.03" cy="86.38" r="3.59"/>
      <circle class="cls-3" cx="268.64" cy="112.15" r="3.59"/>
      <circle class="cls-3" cx="273.44" cy="130.41" r="3.59"/>
      <circle class="cls-3" cx="255.41" cy="152.78" r="3.59"/>
      <circle class="cls-3" cx="282.93" cy="183.38" r="3.59"/>
      <circle class="cls-3" cx="309.56" cy="166.18" r="3.59"/>
      <circle class="cls-3" cx="310.38" cy="143.22" r="3.59"/>
      <circle class="cls-3" cx="350.11" cy="210.23" r="3.59"/>
      <circle class="cls-3" cx="341.77" cy="189.26" r="3.59"/>
      <circle class="cls-3" cx="363.88" cy="240.81" r="3.59"/>
      <circle class="cls-3" cx="351.96" cy="272.85" r="3.59"/>
      <circle class="cls-3" cx="211.42" cy="239.1" r="3.59"/>
      <circle class="cls-3" cx="161.02" cy="256.15" r="3.59"/>
      <circle class="cls-3" cx="157.15" cy="192.78" r="3.59"/>
      <circle class="cls-3" cx="198.79" cy="202.51" r="3.59"/>
      <circle class="cls-3" cx="302.18" cy="239.48" r="3.59"/>
      <circle class="cls-3" cx="343.62" cy="257.79" r="3.59"/>
      <circle class="cls-3" cx="261.95" cy="230.34" r="3.59"/>
      <circle class="cls-3" cx="359.06" cy="81.61" r="3.59"/>
      <circle class="cls-3" cx="347.71" cy="101.11" r="3.59"/>
      <circle class="cls-3" cx="440.68" cy="66.93" r="3.59"/>
      <circle class="cls-3" cx="498.58" cy="65.01" r="3.59"/>
      <circle class="cls-3" cx="497.02" cy="85.52" r="3.59"/>
      <circle class="cls-3" cx="288.34" cy="99.28" r="3.59"/>
      <circle class="cls-3" cx="505.86" cy="121.37" r="3.59"/>
      <circle class="cls-3" cx="515.91" cy="101.41" r="3.59"/>
      <circle class="cls-3" cx="565.92" cy="115.06" r="3.59"/>
      <circle class="cls-3" cx="577.45" cy="175.11" r="3.59"/>
      <circle class="cls-3" cx="554.08" cy="157.91" r="3.59"/>
      <circle class="cls-3" cx="490.91" cy="173.11" r="3.59"/>
      <circle class="cls-3" cx="540.17" cy="66.1" r="3.59"/>
      <circle class="cls-3" cx="558.11" cy="51.29" r="3.59"/>
      <circle class="cls-3" cx="582.16" cy="22.13" r="3.59"/>
      <circle class="cls-3" cx="560.94" cy="73.7" r="3.59"/>
      <circle class="cls-3" cx="540.26" cy="35.43" r="3.59"/>
      <circle class="cls-3" cx="529.6" cy="10.23" r="3.59"/>
      <circle class="cls-3" cx="500.42" cy="19.02" r="3.59"/>
      <circle class="cls-3" cx="472" r="3.59"/>
      <circle class="cls-3" cx="586.86" cy="-.2" r="3.59"/>
      <circle class="cls-3" cx="583.85" cy="100.97" r="3.59"/>
      <circle class="cls-3" cx="553.9" cy="135.67" r="3.59"/>
      <circle class="cls-3" cx="317.08" cy="92.94" r="3.59"/>
      <circle class="cls-3" cx="420.6" cy="108.93" r="3.59"/>
      <circle class="cls-3" cx="426.45" cy="86.84" r="3.59"/>
      <circle class="cls-3" cx="430.3" cy="16.65" r="3.59"/>
      <circle class="cls-3" cx="392.4" cy="46.47" r="3.59"/>
      <circle class="cls-3" cx="331.12" cy="31.86" r="3.59"/>
      <circle class="cls-3" cx="373.66" cy="14.51" r="3.59"/>
      <circle class="cls-3" cx="233.77" cy="24.18" r="3.59"/>
      <circle class="cls-3" cx="198.14" cy="22.17" r="3.59"/>
      <circle class="cls-3" cx="436.09" cy="132.84" r="3.59"/>
      <circle class="cls-3" cx="455.66" cy="146.93" r="3.59"/>
      <circle class="cls-3" cx="409.5" cy="157.19" r="3.59"/>
      <circle class="cls-3" cx="481.1" cy="146.38" r="3.59"/>
      <circle class="cls-3" cx="433.36" cy="155.22" r="3.59"/>
      <circle class="cls-3" cx="431.61" cy="205.36" r="3.59"/>
      <circle class="cls-3" cx="423.59" cy="179.7" r="3.59"/>
      <circle class="cls-3" cx="390.74" cy="218.47" r="3.59"/>
      <circle class="cls-3" cx="411.38" cy="223.18" r="3.59"/>
      <circle class="cls-3" cx="483.31" cy="239" r="3.59"/>
      <circle class="cls-3" cx="475.98" cy="206.87" r="3.59"/>
      <circle class="cls-3" cx="414.91" cy="240.86" r="3.59"/>
      <circle class="cls-3" cx="509.4" cy="183.77" r="3.59"/>
      <circle class="cls-3" cx="530.61" cy="215.11" r="3.59"/>
      <circle class="cls-3" cx="535.63" cy="235.66" r="3.59"/>
      <circle class="cls-3" cx="528.22" cy="259.5" r="3.59"/>
      <circle class="cls-3" cx="515.23" cy="242.46" r="3.59"/>
      <circle class="cls-3" cx="456.5" cy="272.65" r="3.59"/>
      <circle class="cls-3" cx="584.63" cy="257.84" r="3.59"/>
      <circle class="cls-3" cx="562.58" cy="230.28" r="3.59"/>
      <circle class="cls-3" cx="437.41" cy="266.72" r="3.59"/>
      <circle class="cls-3" cx="128.18" cy="209.34" r="3.59"/>
      <circle class="cls-3" cx="129.96" cy="237.07" r="3.59"/>
      <circle class="cls-3" cx="90.68" cy="256.01" r="3.59"/>
    </g>
  </g>
</svg>